<svg xmlns="http://www.w3.org/2000/svg" viewBox="0 0 32 32" width="32" height="32">
  <rect width="32" height="32" rx="6" fill="#0D3B2E"/>
  <g transform="translate(16, 6)" fill="none" stroke="#4ADE80" stroke-width="1.8" stroke-linecap="round">
    <line x1="0" y1="16" x2="0" y2="5"/>
    <path d="M0,14 C-5,12 -7,8 -4,5"/>
    <path d="M-4,5 C-2,4 0,6 0,9"/>
    <path d="M0,12 C5,10 7,6 4,3"/>
    <path d="M4,3 C2,2 0,4 0,7"/>
    <path d="M0,7 C-4,5 -5,1 -2,-2"/>
    <path d="M-2,-2 C-1,-3 0,-1 0,1"/>
    <path d="M0,5 C4,3 5,-1 2,-4"/>
    <path d="M2,-4 C1,-5 0,-3 0,-1"/>
  </g>
  <text x="16" y="28" text-anchor="middle" font-family="Arial" font-weight="bold" font-size="7" fill="white" letter-spacing="1">BSP</text>
</svg>
